<?xml version="1.0" encoding="utf-8"?>
<!-- Generator: Adobe Illustrator 23.0.4, SVG Export Plug-In . SVG Version: 6.00 Build 0)  -->
<svg version="1.1" id="Layer_1" xmlns="http://www.w3.org/2000/svg" xmlns:xlink="http://www.w3.org/1999/xlink" x="0px" y="0px"
	 viewBox="0 0 1200 1200" style="enable-background:new 0 0 1200 1200;" xml:space="preserve">
<style type="text/css">
	.st0{fill:#E11075;}
	.st1{fill:#010101;}
	.st2{stroke:#010101;stroke-width:21.0604;stroke-miterlimit:10;}
	.st3{fill:#FFFFFF;stroke:#010101;stroke-width:21.0604;stroke-linejoin:round;stroke-miterlimit:10;}
	.st4{fill:#FFFFFF;stroke:#010101;stroke-width:21.0604;stroke-linecap:round;stroke-miterlimit:10;}
	.st5{fill:none;stroke:#010101;stroke-width:21.0604;stroke-linecap:round;stroke-miterlimit:10;}
	.st6{fill:#FFFFFF;stroke:#010101;stroke-width:21.0604;stroke-miterlimit:10;}
	.st7{fill:#FFFFFF;}
</style>
<g>
	<g>
		<polygon class="st0" points="116.7,879.1 116.7,320.9 600.1,41.7 1083.6,320.9 1083.6,879.1 600.1,1158.3 		"/>
		<path class="st1" d="M600.1,79.5l450.8,260.3v520.5l-450.8,260.3L149.4,860.3V339.7L600.1,79.5 M600.1,4L84,302v596l516.2,298
			l516.2-298V302L600.1,4L600.1,4z"/>
	</g>
	<g>
		<circle class="st2" cx="579.9" cy="695" r="69.5"/>
		<path class="st3" d="M940.3,451.4h-27.1c0,42.3-16.5,69.5-50.3,69.5c-33.2,0-42.4-26.2-42.7-67.1c14.1-19.2,22.5-42.8,22.5-68.5v0
			c0-63.8-51.7-115.5-115.5-115.5H482.4c-63.8,0-115.5,51.7-115.5,115.5v0c0,49.9,31.6,92.4,75.9,108.5c0.4,3.9,1.2,7.8,2.8,11.6
			l41,103.5c8.6,21.6,33,32.2,54.6,23.6v0c21.6-8.6,32.2-33,23.6-54.6l-30.6-77.2h99.4l-36,75.9c-10,21-1,46.1,20,56.1
			c21,10,46.1,1,56.1-20l47.8-100.6c1.8-3.7,2.9-7.5,3.5-11.4h2.2c14.9,0,29.1-2.9,42.2-8c14.8,41,50.9,70,93.2,70
			C918,562.8,950.5,514.5,940.3,451.4z"/>
		<path class="st4" d="M786.2,380c0,0-21.4-30.8-48.8-2.4"/>
		<path class="st5" d="M285,507.1c0,0-20.7-133.4,82-143.7"/>
		<line class="st5" x1="283.3" y1="460.3" x2="256.6" y2="500.9"/>
		<line class="st5" x1="279.9" y1="466.8" x2="316.6" y2="494.3"/>
		<path class="st6" d="M609.4,311.4l21.1-36.6c14.6-25.3,47-34,72.4-19.4l0,0c25.3,14.6,34,47,19.4,72.4l-21.1,36.6
			c-14.6,25.3-47,34-72.4,19.4l0,0C603.5,369.1,594.8,336.7,609.4,311.4z"/>
		<path class="st4" d="M769.4,492.9c0,0-10.5-23-10.5-48.9"/>
		<g>
			<path class="st7" d="M322.9,917.5V801.7h23.8v115.8H322.9z"/>
			<path class="st7" d="M401.5,835.1c5.7,0,10.7,0.8,15.3,2.5c8.9,3.3,15.6,9,20,17.2c3.4,6.3,5.1,14.1,5.1,23.2
				c0,13.1-4,23.5-12,31.3c-7.3,7.1-16.8,10.6-28.4,10.6c-12.4,0-22.3-4-29.7-11.9c-7.3-7.7-10.9-18-10.9-30.6
				c0-12.4,3.5-22.4,10.6-29.9C379.1,839.3,389.1,835.1,401.5,835.1z M400.5,851.8c-2.4,0-4.6,0.6-6.4,1.8
				c-6.3,3.9-9.4,11.8-9.4,23.8c0,3.9,0.4,7.6,1.1,11.2c1,4.5,2.8,8,5.5,10.6c2.7,2.6,5.9,3.9,9.5,3.9c2.3,0,4.4-0.5,6.3-1.6
				c6.4-3.6,9.6-11.5,9.6-23.8c0-3.8-0.3-7.4-1-10.8c-0.9-4.6-2.7-8.3-5.5-11.1C407.4,853.2,404.1,851.8,400.5,851.8z"/>
			<path class="st7" d="M530.4,901.5v15c-3.2,1.4-6.6,2-10.2,2c-7.3,0-12.8-2.9-16.5-8.7c-2.8,2.7-5.3,4.7-7.6,6
				c-4.9,2.7-11,4.1-18.2,4.1c-8.2,0-14.7-1.8-19.6-5.4c-5.9-4.4-8.8-10.3-8.8-18c0-3.8,0.8-7.3,2.4-10.6
				c3.8-8.2,11.9-13.3,24.3-15.4c4.5-0.7,12.3-1.2,23.3-1.5v-6.4c0-8.3-3.8-12.5-11.4-12.5c-1.5,0-2.9,0.2-4.2,0.5
				c-4.2,1.1-6.6,4.5-7.2,10.3h-24.1c0.5-8.1,3.6-14.4,9.3-18.8c5.9-4.6,14.1-6.9,24.3-6.9c14.8,0,25.3,3.1,31.5,9.2
				c2.5,2.5,4.2,5.3,5,8.4c0.8,3.1,1.2,8.4,1.2,16.1v26.7c0,2.6,0.3,4.4,0.8,5.4c0.5,1,1.5,1.5,2.9,1.5
				C528.2,902.3,529.1,902,530.4,901.5z M499.4,881.1c-6.3,0.3-11.1,0.8-14.5,1.6c-3.7,0.9-6.5,2.4-8.6,4.5c-2,2.1-3.1,4.6-3.1,7.6
				c0,1.3,0.3,2.6,0.8,3.8c1.3,3.3,4.1,5,8.3,5c5.9,0,10.5-2.5,13.8-7.4c2.1-3.2,3.2-6.8,3.2-10.9V881.1z"/>
			<path class="st7" d="M615.7,917.5h-24.8v-6.7c-5.3,6.1-12.4,9.2-21.1,9.2c-11,0-19.8-4.6-26.2-13.8c-5.4-7.8-8.1-17.6-8.1-29.4
				c0-6.1,0.8-11.9,2.5-17.4c2.4-7.8,6.8-13.9,13.3-18.3c5.7-3.9,12-5.9,18.7-5.9c8.7,0,16,3.1,21.9,9.2v-42.6h23.8V917.5z
				 M575.1,853.2c-2.4,0-4.5,0.6-6.4,1.7c-2.9,1.6-5.2,4.4-6.8,8.4c-1.7,3.9-2.5,8.5-2.5,13.7c0,3.3,0.3,6.3,0.8,9
				c2.2,10.6,7.2,15.9,14.8,15.9c4.9,0,8.7-2.2,11.6-6.7c2.9-4.4,4.3-10.4,4.3-17.9c0-7.2-1.4-13-4.2-17.4
				C583.8,855.5,579.9,853.2,575.1,853.2z"/>
			<path class="st7" d="M624.6,852.5v-14.9h12.6v-5.2l16-21.4h7.8v26.6h15.4v14.9h-15.4v37.8c0,4.9,0.5,8.1,1.6,9.6
				c1,1.5,3.2,2.3,6.6,2.3c1.9,0,4-0.4,6.4-1.2v17.1c-4.9,1-9.7,1.5-14.3,1.5c-2.8,0-5.4-0.2-7.9-0.6c-7.3-1.2-12-4.6-14.2-10.4
				c-0.8-2.3-1.4-4.6-1.6-6.8c-0.2-2.2-0.3-6.3-0.3-12.4v-37H624.6z"/>
			<path class="st7" d="M757,883.3h-53.1c0.7,13.7,5.7,20.6,15,20.6c5.7,0,9.8-2.8,12.1-8.5H755c-1.1,4.2-3.2,8.2-6.3,11.9
				c-6.9,8.4-16.7,12.6-29.4,12.6c-12.2,0-21.9-3.6-29.1-10.9c-7.6-7.7-11.5-18.1-11.5-31.1c0-12,3.5-22,10.4-29.9
				c7.5-8.6,17.2-12.9,29.1-12.9c9.5,0,17.6,2.9,24.2,8.6c4.8,4.2,8.4,9.4,10.7,15.7C755.5,865.6,756.8,873.6,757,883.3z
				 M731.8,869.1c-0.3-3.7-1-6.8-2.1-9.3c-2.4-5.8-6.3-8.7-11.6-8.7c-2.5,0-4.8,0.7-6.7,2.2c-4.2,3.1-6.6,8.3-7.4,15.8H731.8z"/>
			<path class="st7" d="M762.7,893.4h23.3c1,7.4,5.2,11.1,12.5,11.1c3.2,0,5.7-0.7,7.5-2.2c1.9-1.5,2.8-3.5,2.8-6.1
				c0-3.6-2.1-6.4-6.3-8.6c-1.7-1-5.4-2.3-11-4.2c-9.5-3.1-15.8-5.7-18.8-7.9c-6.2-4.4-9.2-9.9-9.2-16.6c0-3.5,0.8-6.9,2.4-10.1
				c1.6-3.2,3.8-5.8,6.6-7.7c5.7-4,13.2-6,22.7-6c12.7,0,22.1,3.7,28.3,11.1c2.8,3.4,4.7,7.5,5.6,12.2h-23.5
				c-1.5-5.1-4.8-7.7-9.7-7.7c-2.5,0-4.5,0.6-5.9,1.9s-2.2,3-2.2,5.1c0,3.2,1.9,5.7,5.8,7.6c1.6,0.8,6.2,2.4,13.7,4.6
				c7,2.1,12.4,4.5,16.3,7.3c6,4.2,9,10.1,9,17.5c0,7.7-3,13.8-9,18.4s-14.1,6.8-24.3,6.8c-7.4,0-13.5-1-18.5-3s-9.1-5.2-12.3-9.5
				C765.3,903.3,763.4,898.6,762.7,893.4z"/>
			<path class="st7" d="M835.3,852.5v-14.9h12.6v-5.2l16-21.4h7.8v26.6h15.4v14.9h-15.4v37.8c0,4.9,0.5,8.1,1.6,9.6
				c1,1.5,3.2,2.3,6.6,2.3c1.9,0,4-0.4,6.4-1.2v17.1c-4.9,1-9.7,1.5-14.3,1.5c-2.8,0-5.4-0.2-7.9-0.6c-7.3-1.2-12-4.6-14.2-10.4
				c-0.8-2.3-1.4-4.6-1.6-6.8c-0.2-2.2-0.3-6.3-0.3-12.4v-37H835.3z"/>
		</g>
	</g>
</g>
</svg>
