<?xml version="1.0" encoding="UTF-8" standalone="no"?>
<!-- Generator: Adobe Illustrator 23.0.4, SVG Export Plug-In . SVG Version: 6.00 Build 0)  -->

<svg
   xmlns:dc="http://purl.org/dc/elements/1.1/"
   xmlns:cc="http://creativecommons.org/ns#"
   xmlns:rdf="http://www.w3.org/1999/02/22-rdf-syntax-ns#"
   xmlns:svg="http://www.w3.org/2000/svg"
   xmlns="http://www.w3.org/2000/svg"
   xmlns:sodipodi="http://sodipodi.sourceforge.net/DTD/sodipodi-0.dtd"
   xmlns:inkscape="http://www.inkscape.org/namespaces/inkscape"
   version="1.1"
   id="Layer_1"
   x="0px"
   y="0px"
   viewBox="0 0 882884.54 1019467.3"
   xml:space="preserve"
   sodipodi:docname="README-loadtest-hex.svg"
   width="194.66377mm"
   height="224.77837mm"
   inkscape:version="0.92.4 (5da689c313, 2019-01-14)"
   inkscape:export-filename="C:\Users\JNolis2\OneDrive - T-Mobile USA\documents\loadtest-print-hex.png"
   inkscape:export-xdpi="470.32999"
   inkscape:export-ydpi="470.32999"><metadata
   id="metadata53"><rdf:RDF><cc:Work
       rdf:about=""><dc:format>image/svg+xml</dc:format><dc:type
         rdf:resource="http://purl.org/dc/dcmitype/StillImage" /><dc:title></dc:title></cc:Work></rdf:RDF></metadata><defs
   id="defs51">
	
	

		
		
	</defs><sodipodi:namedview
   pagecolor="#ffffff"
   bordercolor="#666666"
   borderopacity="1"
   objecttolerance="10"
   gridtolerance="10"
   guidetolerance="10"
   inkscape:pageopacity="0"
   inkscape:pageshadow="2"
   inkscape:window-width="1368"
   inkscape:window-height="849"
   id="namedview49"
   showgrid="false"
   units="mm"
   inkscape:zoom="0.5"
   inkscape:cx="495.42761"
   inkscape:cy="552.33704"
   inkscape:window-x="-8"
   inkscape:window-y="1072"
   inkscape:window-maximized="1"
   inkscape:current-layer="Layer_1" />
<style
   type="text/css"
   id="style2">
	.st0{fill:#E11075;}
	.st1{fill:#010101;}
	.st2{stroke:#010101;stroke-width:21.0604;stroke-miterlimit:10;}
	.st3{fill:#FFFFFF;stroke:#010101;stroke-width:21.0604;stroke-linejoin:round;stroke-miterlimit:10;}
	.st4{fill:#FFFFFF;stroke:#010101;stroke-width:21.0604;stroke-linecap:round;stroke-miterlimit:10;}
	.st5{fill:none;stroke:#010101;stroke-width:21.0604;stroke-linecap:round;stroke-miterlimit:10;}
	.st6{fill:#FFFFFF;stroke:#010101;stroke-width:21.0604;stroke-miterlimit:10;}
	.st7{fill:#FFFFFF;}
</style>
<polygon
   class="st0"
   points="1083.6,320.9 1083.6,879.1 600.1,1158.3 116.7,879.1 116.7,320.9 600.1,41.7 "
   id="polygon4"
   style="fill:#e11075"
   transform="matrix(880.46133,0,0,880.46133,-86966.588,-18543.164)" /><g
   id="g44"
   transform="matrix(880.46133,0,0,880.46133,-86254.118,19.069319)">
		<circle
   style="stroke:#010101;stroke-width:21.06040001;stroke-miterlimit:10"
   id="circle10"
   r="69.5"
   cy="695"
   cx="579.90002"
   class="st2" />
		<path
   style="fill:#ffffff;stroke:#010101;stroke-width:21.06040001;stroke-linejoin:round;stroke-miterlimit:10"
   inkscape:connector-curvature="0"
   id="path12"
   d="m 940.3,451.4 h -27.1 c 0,42.3 -16.5,69.5 -50.3,69.5 -33.2,0 -42.4,-26.2 -42.7,-67.1 14.1,-19.2 22.5,-42.8 22.5,-68.5 v 0 C 842.7,321.5 791,269.8 727.2,269.8 H 482.4 c -63.8,0 -115.5,51.7 -115.5,115.5 v 0 c 0,49.9 31.6,92.4 75.9,108.5 0.4,3.9 1.2,7.8 2.8,11.6 l 41,103.5 c 8.6,21.6 33,32.2 54.6,23.6 v 0 c 21.6,-8.6 32.2,-33 23.6,-54.6 l -30.6,-77.2 h 99.4 l -36,75.9 c -10,21 -1,46.1 20,56.1 21,10 46.1,1 56.1,-20 l 47.8,-100.6 c 1.8,-3.7 2.9,-7.5 3.5,-11.4 h 2.2 c 14.9,0 29.1,-2.9 42.2,-8 14.8,41 50.9,70 93.2,70 55.4,0.1 87.9,-48.2 77.7,-111.3 z"
   class="st3" />
		<path
   style="fill:#ffffff;stroke:#010101;stroke-width:21.06040001;stroke-linecap:round;stroke-miterlimit:10"
   inkscape:connector-curvature="0"
   id="path14"
   d="m 786.2,380 c 0,0 -21.4,-30.8 -48.8,-2.4"
   class="st4" />
		<path
   style="fill:none;stroke:#010101;stroke-width:21.06040001;stroke-linecap:round;stroke-miterlimit:10"
   inkscape:connector-curvature="0"
   id="path16"
   d="m 285,507.1 c 0,0 -20.7,-133.4 82,-143.7"
   class="st5" />
		<line
   style="fill:none;stroke:#010101;stroke-width:21.06040001;stroke-linecap:round;stroke-miterlimit:10"
   id="line18"
   y2="500.89999"
   x2="256.60001"
   y1="460.29999"
   x1="283.29999"
   class="st5" />
		<line
   style="fill:none;stroke:#010101;stroke-width:21.06040001;stroke-linecap:round;stroke-miterlimit:10"
   id="line20"
   y2="494.29999"
   x2="316.60001"
   y1="466.79999"
   x1="279.89999"
   class="st5" />
		<path
   style="fill:#ffffff;stroke:#010101;stroke-width:21.06040001;stroke-miterlimit:10"
   inkscape:connector-curvature="0"
   id="path22"
   d="m 609.4,311.4 21.1,-36.6 c 14.6,-25.3 47,-34 72.4,-19.4 v 0 c 25.3,14.6 34,47 19.4,72.4 l -21.1,36.6 c -14.6,25.3 -47,34 -72.4,19.4 v 0 c -25.3,-14.7 -34,-47.1 -19.4,-72.4 z"
   class="st6" />
		<path
   style="fill:#ffffff;stroke:#010101;stroke-width:21.06040001;stroke-linecap:round;stroke-miterlimit:10"
   inkscape:connector-curvature="0"
   id="path24"
   d="m 769.4,492.9 c 0,0 -10.5,-23 -10.5,-48.9"
   class="st4" />
		<g
   id="g42">
			<path
   style="fill:#ffffff"
   inkscape:connector-curvature="0"
   id="path26"
   d="M 322.9,917.5 V 801.7 h 23.8 v 115.8 z"
   class="st7" />
			<path
   style="fill:#ffffff"
   inkscape:connector-curvature="0"
   id="path28"
   d="m 401.5,835.1 c 5.7,0 10.7,0.8 15.3,2.5 8.9,3.3 15.6,9 20,17.2 3.4,6.3 5.1,14.1 5.1,23.2 0,13.1 -4,23.5 -12,31.3 -7.3,7.1 -16.8,10.6 -28.4,10.6 -12.4,0 -22.3,-4 -29.7,-11.9 -7.3,-7.7 -10.9,-18 -10.9,-30.6 0,-12.4 3.5,-22.4 10.6,-29.9 7.6,-8.2 17.6,-12.4 30,-12.4 z m -1,16.7 c -2.4,0 -4.6,0.6 -6.4,1.8 -6.3,3.9 -9.4,11.8 -9.4,23.8 0,3.9 0.4,7.6 1.1,11.2 1,4.5 2.8,8 5.5,10.6 2.7,2.6 5.9,3.9 9.5,3.9 2.3,0 4.4,-0.5 6.3,-1.6 6.4,-3.6 9.6,-11.5 9.6,-23.8 0,-3.8 -0.3,-7.4 -1,-10.8 -0.9,-4.6 -2.7,-8.3 -5.5,-11.1 -2.8,-2.6 -6.1,-4 -9.7,-4 z"
   class="st7" />
			<path
   style="fill:#ffffff"
   inkscape:connector-curvature="0"
   id="path30"
   d="m 530.4,901.5 v 15 c -3.2,1.4 -6.6,2 -10.2,2 -7.3,0 -12.8,-2.9 -16.5,-8.7 -2.8,2.7 -5.3,4.7 -7.6,6 -4.9,2.7 -11,4.1 -18.2,4.1 -8.2,0 -14.7,-1.8 -19.6,-5.4 -5.9,-4.4 -8.8,-10.3 -8.8,-18 0,-3.8 0.8,-7.3 2.4,-10.6 3.8,-8.2 11.9,-13.3 24.3,-15.4 4.5,-0.7 12.3,-1.2 23.3,-1.5 v -6.4 c 0,-8.3 -3.8,-12.5 -11.4,-12.5 -1.5,0 -2.9,0.2 -4.2,0.5 -4.2,1.1 -6.6,4.5 -7.2,10.3 h -24.1 c 0.5,-8.1 3.6,-14.4 9.3,-18.8 5.9,-4.6 14.1,-6.9 24.3,-6.9 14.8,0 25.3,3.1 31.5,9.2 2.5,2.5 4.2,5.3 5,8.4 0.8,3.1 1.2,8.4 1.2,16.1 v 26.7 c 0,2.6 0.3,4.4 0.8,5.4 0.5,1 1.5,1.5 2.9,1.5 0.6,-0.2 1.5,-0.5 2.8,-1 z m -31,-20.4 c -6.3,0.3 -11.1,0.8 -14.5,1.6 -3.7,0.9 -6.5,2.4 -8.6,4.5 -2,2.1 -3.1,4.6 -3.1,7.6 0,1.3 0.3,2.6 0.8,3.8 1.3,3.3 4.1,5 8.3,5 5.9,0 10.5,-2.5 13.8,-7.4 2.1,-3.2 3.2,-6.8 3.2,-10.9 v -4.2 z"
   class="st7" />
			<path
   style="fill:#ffffff"
   inkscape:connector-curvature="0"
   id="path32"
   d="m 615.7,917.5 h -24.8 v -6.7 c -5.3,6.1 -12.4,9.2 -21.1,9.2 -11,0 -19.8,-4.6 -26.2,-13.8 -5.4,-7.8 -8.1,-17.6 -8.1,-29.4 0,-6.1 0.8,-11.9 2.5,-17.4 2.4,-7.8 6.8,-13.9 13.3,-18.3 5.7,-3.9 12,-5.9 18.7,-5.9 8.7,0 16,3.1 21.9,9.2 v -42.6 h 23.8 z m -40.6,-64.3 c -2.4,0 -4.5,0.6 -6.4,1.7 -2.9,1.6 -5.2,4.4 -6.8,8.4 -1.7,3.9 -2.5,8.5 -2.5,13.7 0,3.3 0.3,6.3 0.8,9 2.2,10.6 7.2,15.9 14.8,15.9 4.9,0 8.7,-2.2 11.6,-6.7 2.9,-4.4 4.3,-10.4 4.3,-17.9 0,-7.2 -1.4,-13 -4.2,-17.4 -2.9,-4.4 -6.8,-6.7 -11.6,-6.7 z"
   class="st7" />
			<path
   style="fill:#ffffff"
   inkscape:connector-curvature="0"
   id="path34"
   d="m 624.6,852.5 v -14.9 h 12.6 v -5.2 l 16,-21.4 h 7.8 v 26.6 h 15.4 v 14.9 H 661 v 37.8 c 0,4.9 0.5,8.1 1.6,9.6 1,1.5 3.2,2.3 6.6,2.3 1.9,0 4,-0.4 6.4,-1.2 v 17.1 c -4.9,1 -9.7,1.5 -14.3,1.5 -2.8,0 -5.4,-0.2 -7.9,-0.6 -7.3,-1.2 -12,-4.6 -14.2,-10.4 -0.8,-2.3 -1.4,-4.6 -1.6,-6.8 -0.2,-2.2 -0.3,-6.3 -0.3,-12.4 v -37 h -12.7 z"
   class="st7" />
			<path
   style="fill:#ffffff"
   inkscape:connector-curvature="0"
   id="path36"
   d="m 757,883.3 h -53.1 c 0.7,13.7 5.7,20.6 15,20.6 5.7,0 9.8,-2.8 12.1,-8.5 h 24 c -1.1,4.2 -3.2,8.2 -6.3,11.9 -6.9,8.4 -16.7,12.6 -29.4,12.6 -12.2,0 -21.9,-3.6 -29.1,-10.9 -7.6,-7.7 -11.5,-18.1 -11.5,-31.1 0,-12 3.5,-22 10.4,-29.9 7.5,-8.6 17.2,-12.9 29.1,-12.9 9.5,0 17.6,2.9 24.2,8.6 4.8,4.2 8.4,9.4 10.7,15.7 2.4,6.2 3.7,14.2 3.9,23.9 z m -25.2,-14.2 c -0.3,-3.7 -1,-6.8 -2.1,-9.3 -2.4,-5.8 -6.3,-8.7 -11.6,-8.7 -2.5,0 -4.8,0.7 -6.7,2.2 -4.2,3.1 -6.6,8.3 -7.4,15.8 z"
   class="st7" />
			<path
   style="fill:#ffffff"
   inkscape:connector-curvature="0"
   id="path38"
   d="M 762.7,893.4 H 786 c 1,7.4 5.2,11.1 12.5,11.1 3.2,0 5.7,-0.7 7.5,-2.2 1.9,-1.5 2.8,-3.5 2.8,-6.1 0,-3.6 -2.1,-6.4 -6.3,-8.6 -1.7,-1 -5.4,-2.3 -11,-4.2 -9.5,-3.1 -15.8,-5.7 -18.8,-7.9 -6.2,-4.4 -9.2,-9.9 -9.2,-16.6 0,-3.5 0.8,-6.9 2.4,-10.1 1.6,-3.2 3.8,-5.8 6.6,-7.7 5.7,-4 13.2,-6 22.7,-6 12.7,0 22.1,3.7 28.3,11.1 2.8,3.4 4.7,7.5 5.6,12.2 h -23.5 c -1.5,-5.1 -4.8,-7.7 -9.7,-7.7 -2.5,0 -4.5,0.6 -5.9,1.9 -1.4,1.3 -2.2,3 -2.2,5.1 0,3.2 1.9,5.7 5.8,7.6 1.6,0.8 6.2,2.4 13.7,4.6 7,2.1 12.4,4.5 16.3,7.3 6,4.2 9,10.1 9,17.5 0,7.7 -3,13.8 -9,18.4 -6,4.6 -14.1,6.8 -24.3,6.8 -7.4,0 -13.5,-1 -18.5,-3 -5,-2 -9.1,-5.2 -12.3,-9.5 -3.2,-4.1 -5.1,-8.8 -5.8,-14 z"
   class="st7" />
			<path
   style="fill:#ffffff"
   inkscape:connector-curvature="0"
   id="path40"
   d="m 835.3,852.5 v -14.9 h 12.6 v -5.2 l 16,-21.4 h 7.8 v 26.6 h 15.4 v 14.9 h -15.4 v 37.8 c 0,4.9 0.5,8.1 1.6,9.6 1,1.5 3.2,2.3 6.6,2.3 1.9,0 4,-0.4 6.4,-1.2 v 17.1 c -4.9,1 -9.7,1.5 -14.3,1.5 -2.8,0 -5.4,-0.2 -7.9,-0.6 -7.3,-1.2 -12,-4.6 -14.2,-10.4 -0.8,-2.3 -1.4,-4.6 -1.6,-6.8 -0.2,-2.2 -0.3,-6.3 -0.3,-12.4 v -37 h -12.7 z"
   class="st7" />
		</g>
	</g>
<path
   sodipodi:type="star"
   style="fill:none;fill-opacity:1;stroke:#202020;stroke-width:35099.71875;stroke-miterlimit:4;stroke-dasharray:none;stroke-opacity:1"
   id="path916"
   sodipodi:sides="6"
   sodipodi:cx="441442.26"
   sodipodi:cy="509733.61"
   sodipodi:r1="489468.78"
   sodipodi:r2="423892.34"
   sodipodi:arg1="0.52359878"
   sodipodi:arg2="1.0471976"
   inkscape:flatsided="true"
   inkscape:rounded="0"
   inkscape:randomized="0"
   d="m 865334.65,754468.02 -423892.4,244734.39 -423892.4,-244734.4 0,-489468.78 L 441442.25,20264.844 865334.65,264999.24 Z" /></svg>